<svg xmlns="http://www.w3.org/2000/svg" viewBox="0 0 40 40" fill="none">
  <!-- Background -->
  <rect width="40" height="40" rx="10" fill="#0B1A10"/>
  <!-- Gold border -->
  <rect x="1.25" y="1.25" width="37.5" height="37.5" rx="9" stroke="url(#g1)" stroke-width="1.5"/>
  <!-- Trophy cup -->
  <path d="M13 9 H27 V20 C27 23.866 23.866 27 20 27 C16.134 27 13 23.866 13 20 Z" fill="#D4AF37"/>
  <!-- Left handle -->
  <path d="M13 12 C9 12 8 16 10 19 L13 20" stroke="#D4AF37" stroke-width="2" stroke-linecap="round" fill="none"/>
  <!-- Right handle -->
  <path d="M27 12 C31 12 32 16 30 19 L27 20" stroke="#D4AF37" stroke-width="2" stroke-linecap="round" fill="none"/>
  <!-- Stem -->
  <rect x="17" y="27" width="6" height="4" fill="#D4AF37"/>
  <!-- Base -->
  <rect x="12" y="31" width="16" height="3" rx="1.5" fill="#D4AF37"/>
  <!-- Star dots -->
  <circle cx="20" cy="37" r="1.2" fill="#D4AF37" opacity="0.45"/>
  <circle cx="16" cy="37" r="0.9" fill="#D4AF37" opacity="0.3"/>
  <circle cx="24" cy="37" r="0.9" fill="#D4AF37" opacity="0.3"/>
  <defs>
    <linearGradient id="g1" x1="0" y1="0" x2="40" y2="40" gradientUnits="userSpaceOnUse">
      <stop offset="0%" stop-color="#EDD06A"/>
      <stop offset="50%" stop-color="#D4AF37"/>
      <stop offset="100%" stop-color="#A8891A"/>
    </linearGradient>
  </defs>
</svg>
